<svg width="20" height="27" fill="none" xmlns="http://www.w3.org/2000/svg"><path d="M10 26.178c-.456 0-.9-.19-1.211-.534C6.144 22.811-.011 15.611 0 9.922 0 4.456 4.489 0 10 0s10 4.456 10 9.922c0 5.656-6.144 12.878-8.789 15.722a1.675 1.675 0 0 1-1.211.534ZM10 1.11c-4.9 0-8.889 3.956-8.889 8.811C1.1 15.355 7.6 22.744 9.6 24.89a.538.538 0 0 0 .8 0c1.989-2.145 8.489-9.556 8.489-14.967 0-4.855-3.989-8.81-8.889-8.81Z" fill="#C08E71"/><path d="M10 15.078c-2.756 0-5-2.244-5-5 0-2.755 2.244-5 5-5 2.755 0 5 2.245 5 5 0 2.756-2.245 5-5 5Zm0-8.889a3.893 3.893 0 0 0-3.889 3.89A3.893 3.893 0 0 0 10 13.966a3.893 3.893 0 0 0 3.889-3.889A3.893 3.893 0 0 0 10 6.19Z" fill="#C08E71"/></svg>