<svg width="24" height="24" fill="none" xmlns="http://www.w3.org/2000/svg"><path d="M20.963 23.31c-.25 0-.5-.03-.73-.07-4.77-.72-9.6-3.23-13.25-6.88A24.821 24.821 0 0 1 .073 3.09c-.09-.51-.15-1.15.15-1.67.18-.29.43-.49.72-.55l3.61-.81c.76-.16 1.54.37 1.79 1.2.38 1.27.69 2.29 1.23 3.39.37.76.14 1.66-.52 2.06l-.86.5a.72.72 0 0 0-.35.47c-.17.69 2.08 3.61 4.14 5.66 1.71 1.71 4.79 4.17 5.53 3.99.2-.05.37-.18.48-.36l.5-.86c.4-.66 1.3-.89 2.06-.52.7.34 1.85.8 2.77 1.16 1.26.5 1.39.55 1.5.67.38.38.54.87.44 1.34l-.81 3.6c-.06.29-.25.55-.55.73-.3.17-.62.22-.94.22ZM1.083 1.93c-.11.18-.12.5-.03.99.87 4.86 3.16 9.27 6.64 12.74 3.5 3.5 8.13 5.91 12.69 6.6.38.06.79.1 1-.03.06-.03.08-.07.08-.08l.81-3.6c.03-.13-.03-.29-.17-.42-.03 0-.63-.24-1.16-.45-.94-.37-2.1-.83-2.84-1.19-.28-.14-.63-.08-.76.13l-.5.86c-.24.41-.64.71-1.1.82-1.77.45-6.44-4.21-6.49-4.25-.2-.2-4.85-4.87-4.4-6.62.11-.45.41-.85.82-1.09l.85-.5c.21-.13.27-.47.13-.76-.57-1.17-.89-2.23-1.26-3.46-.12-.39-.41-.64-.65-.58 0 0-.19.04-3.61.81.01-.01-.02.02-.05.08ZM18.733 11.12c-.28 0-.5-.22-.5-.5 0-3.65-2.97-6.61-6.61-6.61-.28 0-.5-.22-.5-.5s.22-.5.5-.5c4.2 0 7.61 3.41 7.61 7.61 0 .28-.22.5-.5.5Z" fill="#C08E71"/><path d="M21.743 11.12c-.28 0-.5-.22-.5-.5 0-5.31-4.32-9.62-9.62-9.62-.28 0-.5-.22-.5-.5s.22-.5.5-.5c5.86 0 10.62 4.77 10.62 10.62 0 .28-.22.5-.5.5Z" fill="#C08E71"/></svg>