<svg width="1595" height="1633" fill="#f5eee8" xmlns="http://www.w3.org/2000/svg"><path fill-rule="evenodd" clip-rule="evenodd" d="M1627.13 806.332c-38.11-65.898-88.47-117.692-145.78-155.493-16.92 30.785-37.09 59.294-59.94 85.219 21.36 23.427 41.54 50.224 60.17 80.454-73.93 119.944-172.05 186.148-272.75 198.968-36.15-52.029-82.82-96.863-137.74-130.763 64.53-1.895 127.36-17.434 184.7-44.413 35.07 26.67 64.72 61.776 87.33 104.555 19.34-13.588 38.12-29.603 56.1-48.067-29.28-31.205-62.71-58.169-99.08-80.264 130.74-79.392 223.33-221.986 223.48-396.507v-11.765l-10.19-5.875c-65.95-38.007-135.45-57.684-203.99-61.767.73 35.129-2.48 69.901-9.31 103.77 30.22 9.609 61.1 22.722 92.34 39.593-4.05 140.842-55.92 247.237-136.73 308.679-57.31-26.971-120.15-42.47-184.66-44.373 54.94-33.9 101.58-78.781 137.75-130.805 43.71 5.557 86.93 21.136 127.91 46.886 9.95-21.437 18.21-44.69 24.56-69.68-40.97-12.383-83.4-19.011-125.94-19.962 73.53-134.127 82.42-303.915-4.72-455.127l-5.87-10.195-11.77.007c-76.13.064-146.16 17.759-207.55 48.504 18.2 30.056 32.81 61.776 43.84 94.519 30.96-6.787 64.26-10.87 99.76-11.884 66.91 123.995 75.19 242.075 35.93 335.69-63.22 5.304-125.48 23.348-182.36 54.03 30.68-56.86 48.69-119.048 54.01-182.235 40.67-17.077 85.94-25.219 134.35-23.404-2.09-23.546-6.58-47.814-13.57-72.621-41.68 9.768-81.75 25.243-119.08 45.69-3.37-152.933-80.553-304.414-231.623-391.805L816.52 0l-10.18 5.89C740.442 44.01 688.648 94.36 650.847 151.673c30.785 16.934 59.294 37.103 85.219 59.944 23.427-21.358 50.224-41.543 80.454-60.174 119.944 73.929 186.15 172.055 198.96 272.749-52.021 36.152-96.855 82.825-130.763 137.743-1.895-64.527-17.434-127.365-44.405-184.701 26.67-35.073 61.775-64.716 104.555-87.327-13.588-19.345-29.603-38.118-48.067-56.115-31.205 29.294-58.161 62.719-80.264 99.093-79.392-130.75-221.986-223.334-396.507-223.477l-11.765-.007-5.875 10.195c-38.007 65.962-57.692 135.459-61.767 203.989 35.129-.729 69.901 2.482 103.77 9.3 9.609-30.214 22.722-61.086 39.593-92.338 140.842 4.051 247.237 55.924 308.679 136.727-26.979 57.32-42.47 120.158-44.373 184.669-33.901-54.934-78.781-101.583-130.805-137.751 5.565-43.707 21.144-86.931 46.886-127.903-21.445-9.958-44.698-18.211-69.679-24.561-12.384 40.964-19.012 83.403-19.971 125.945-134.128-73.533-303.915-82.42-455.127 4.709l-10.196 5.875.008 11.765c.064 76.126 17.767 146.154 48.504 207.549 30.056-18.195 61.776-32.798 94.519-43.826-6.787-30.967-10.87-64.265-11.892-99.759 124.003-66.913 242.075-75.19 335.69-35.938 5.304 63.218 23.348 125.478 54.03 182.361-56.86-30.673-119.04-48.686-182.227-54.006-17.077-40.671-25.219-85.94-23.404-134.349-23.546 2.093-47.814 6.581-72.621 13.573 9.768 41.678 25.243 81.746 45.69 119.072-152.933 3.377-304.422 80.557-391.805 231.626L0 816.504l5.89 10.188C44.01 892.59 94.353 944.384 151.673 982.177c16.926-30.785 37.103-59.294 59.944-85.219-21.358-23.427-41.543-50.224-60.174-80.454 73.929-119.944 172.047-186.151 272.749-198.963 36.152 52.024 82.825 96.857 137.743 130.766-64.527 1.895-127.365 17.433-184.701 44.405-35.073-26.67-64.716-61.776-87.327-104.556-19.345 13.589-38.118 29.604-56.107 48.068 29.294 31.205 62.719 58.161 99.085 80.264-130.75 79.4-223.334 221.992-223.485 396.512l-.008 11.76 10.196 5.87c65.962 38.01 135.459 57.69 203.997 61.77-.737-35.13 2.482-69.9 9.3-103.78-30.214-9.6-61.086-22.72-92.339-39.58 4.052-140.84 55.925-247.246 136.728-308.68 57.32 26.971 120.158 42.462 184.669 44.373-54.934 33.9-101.583 78.781-137.751 130.807-43.715-5.56-86.939-21.138-127.911-46.888-9.958 21.437-18.211 44.698-24.561 69.678 40.964 12.39 83.403 19.01 125.945 19.97-73.533 134.13-82.42 303.92 4.709 455.12l5.875 10.2 11.765-.01c76.134-.06 146.154-17.77 207.549-48.51-18.195-30.05-32.798-61.78-43.826-94.52-30.967 6.78-64.265 10.87-99.759 11.89-66.913-124-75.19-242.08-35.93-335.69 63.218-5.3 125.47-23.35 182.354-54.03-30.674 56.86-48.687 119.04-54.007 182.23-40.663 17.07-85.94 25.22-134.341 23.39 2.093 23.56 6.581 47.82 13.573 72.63 41.678-9.77 81.746-25.24 119.072-45.7 3.377 152.94 80.565 304.42 231.626 391.81l10.18 5.89 10.187-5.89c65.899-38.12 117.693-88.46 155.486-145.78-30.785-16.94-59.294-37.11-85.219-59.95-23.427 21.36-50.224 41.54-80.454 60.18-119.944-73.93-186.151-172.05-198.963-272.75 52.024-36.15 96.857-82.83 130.766-137.74 1.894 64.53 17.433 127.36 44.405 184.7-26.67 35.08-61.776 64.72-104.556 87.33 13.589 19.35 29.604 38.12 48.068 56.11 31.205-29.29 58.161-62.72 80.264-99.09 79.392 130.75 221.992 223.34 396.502 223.48l11.77.01 5.87-10.2c38.01-65.95 57.7-135.45 61.77-203.99-35.13.74-69.9-2.48-103.77-9.3-9.61 30.22-22.72 61.09-39.59 92.34-140.84-4.05-247.246-55.92-308.681-136.73 26.972-57.31 42.471-120.15 44.374-184.66 33.9 54.94 78.781 101.58 130.807 137.75-5.57 43.71-21.146 86.94-46.888 127.9 21.445 9.97 44.698 18.21 69.678 24.56 12.38-40.96 19.01-83.4 19.97-125.94 134.13 73.53 303.92 82.42 455.12-4.71l10.2-5.88-.01-11.76c-.06-76.13-17.76-146.16-48.51-207.55-30.06 18.2-61.77 32.8-94.51 43.83 6.77 30.96 10.87 64.26 11.88 99.76-123.99 66.91-242.08 75.18-335.69 35.93-5.3-63.22-23.35-125.47-54.03-182.36 56.86 30.67 119.05 48.69 182.23 54.01 17.07 40.67 25.22 85.94 23.4 134.34 23.55-2.09 47.81-6.58 72.62-13.57-9.77-41.68-25.24-81.74-45.69-119.07 152.93-3.39 304.42-80.557 391.8-231.626l5.89-10.188-5.87-10.164Zm-408.17 10.18c-69.14 37.492-154.17 46.744-246.368 22.603-8.428-2.735-17.006-5.209-25.679-7.468a489.052 489.052 0 0 1-23.245-8.198c-9.776 1.934-19.725 3.496-29.754 4.844a76.85 76.85 0 0 0 .705-6.509c18.576-8.364 36.961-15.412 55.116-21.184 7.373-1.966 14.683-4.059 21.874-6.374 92.571-24.474 177.971-15.333 247.351 22.286Zm-53.92-201.215c-41.13 67.04-110.15 117.566-202.057 142.753-8.673 1.848-17.331 3.988-25.972 6.366a489.264 489.264 0 0 1-24.237 4.52c-7.492 6.564-15.317 12.883-23.316 19.059a78 78 0 0 0-2.656-5.986c12.947-17.981 26.48-34.511 40.528-49.582 3.98-4.067 8.055-8.071 11.861-12.257 68.039-67.801 146.769-102.764 225.849-104.873Zm-147.3-147.295c-2.09 78.623-36.61 156.896-103.626 224.666a458.524 458.524 0 0 0-19.265 18.464 502.34 502.34 0 0 1-18.75 16.054c-3.203 9.427-6.826 18.814-10.663 28.161-1.713-1.372-3.465-2.704-5.288-3.932 2.045-20.28 5.145-39.744 9.236-58.359 1.951-7.27 3.774-14.548 5.344-21.842 25.076-92.473 75.705-161.923 143.012-203.212Zm-201.212-53.911c37.492 69.133 46.736 154.169 22.595 246.365-2.736 8.427-5.209 16.99-7.469 25.663a494.188 494.188 0 0 1-8.205 23.253c1.942 9.775 3.496 19.725 4.852 29.762a80.287 80.287 0 0 0-6.509-.714c-8.388-18.623-15.452-37.063-21.231-55.266-1.943-7.254-3.996-14.445-6.271-21.525-24.522-92.639-15.413-178.12 22.238-247.538Zm-201.207 53.911c67.032 41.123 117.558 110.137 142.745 202.047a449.22 449.22 0 0 0 6.374 25.98 489.443 489.443 0 0 1 4.519 24.236c6.557 7.492 12.876 15.317 19.059 23.317a78.868 78.868 0 0 0-5.993 2.648c-17.989-12.947-34.519-26.488-49.59-40.537-4.044-3.964-8.039-8.015-12.202-11.797C652.401 625.842 617.43 547.1 615.321 468.002ZM468.018 615.297c78.599 2.094 156.857 36.596 224.618 103.573a454.235 454.235 0 0 0 18.567 19.376 493.018 493.018 0 0 1 16.007 18.694c9.419 3.203 18.798 6.818 28.145 10.656-1.372 1.712-2.704 3.464-3.933 5.288-20.24-2.038-39.656-5.13-58.247-9.205-7.341-1.974-14.699-3.813-22.056-5.407-92.425-25.084-161.828-75.697-203.101-142.975Zm-53.911 201.215c69.141-37.492 154.193-46.744 246.412-22.587 8.404 2.727 16.943 5.193 25.584 7.444a491.635 491.635 0 0 1 23.293 8.222c9.775-1.943 19.717-3.496 29.738-4.852a80.043 80.043 0 0 0-.714 6.517c-18.599 8.372-37.008 15.428-55.179 21.199-7.294 1.95-14.532 4.02-21.659 6.311-92.624 24.506-178.073 15.388-247.475-22.254Zm53.911 201.218c41.123-67.035 110.136-117.561 202.047-142.749a450.468 450.468 0 0 0 25.988-6.374 492.027 492.027 0 0 1 24.228-4.519c7.484-6.556 15.301-12.867 23.301-19.043a77.954 77.954 0 0 0 2.655 5.994c-12.93 17.965-26.448 34.471-40.472 49.518-4.004 4.099-8.111 8.127-11.932 12.344-68.039 67.769-146.741 102.709-225.815 104.829Zm147.303 147.29c2.093-78.6 36.588-156.85 103.565-224.608a454.232 454.232 0 0 0 19.384-18.576 494.853 494.853 0 0 1 18.694-16.007c3.203-9.418 6.818-18.789 10.656-28.136 1.712 1.379 3.464 2.703 5.295 3.932-2.045 20.241-5.129 39.664-9.212 58.248-1.974 7.341-3.805 14.682-5.399 22.04-25.084 92.427-75.705 161.837-142.983 203.107Zm201.207 53.91c-37.492-69.15-46.744-154.19-22.587-246.409a459.096 459.096 0 0 0 7.444-25.584 485.906 485.906 0 0 1 8.222-23.293c-1.943-9.767-3.497-19.709-4.852-29.738 2.148.325 4.312.563 6.516.713 8.364 18.568 15.405 36.945 21.168 55.084 1.974 7.381 4.067 14.699 6.382 21.898 24.466 92.559 15.333 177.959-22.293 247.329Zm201.212-53.91c-67.037-41.13-117.571-110.15-142.759-202.077a453.898 453.898 0 0 0-6.358-25.924 498.427 498.427 0 0 1-4.527-24.268c-6.556-7.484-12.875-15.309-19.051-23.301a79.539 79.539 0 0 0 5.994-2.656c17.965 12.939 34.487 26.464 49.55 40.489 4.091 4.003 8.118 8.095 12.32 11.924 67.777 68.043 102.721 146.753 104.831 225.813Zm-77.344-250.89a451.169 451.169 0 0 0-18.52-19.328 494.106 494.106 0 0 1-16.023-18.719c-9.418-3.202-18.797-6.818-28.144-10.663 1.371-1.712 2.703-3.464 3.932-5.288 20.28 2.046 39.736 5.137 58.351 9.228 7.27 1.951 14.532 3.774 21.818 5.344 92.49 25.076 161.94 75.713 203.24 143.026-78.63-2.1-156.88-36.608-224.654-103.6Z"/></svg>